<svg width="285" height="285" viewBox="0 0 285 285" fill="none" xmlns="http://www.w3.org/2000/svg">
<g clip-path="url(#clip0_20_108)">
<rect width="285" height="285" rx="50" fill="#031428"/>
<g filter="url(#filter0_f_20_108)">
<path d="M301.519 184C301.519 229.011 265.03 265.5 220.019 265.5C175.008 265.5 138.519 229.011 138.519 184C138.519 138.989 80.0076 58 125.019 58C170.03 58 301.519 138.989 301.519 184Z" fill="url(#paint0_radial_20_108)"/>
</g>
<g opacity="0.7" filter="url(#filter1_f_20_108)">
<path d="M258 136.629C258 186.611 180.711 256 130.648 256C80.5845 256 40 215.482 40 165.5C40 115.518 80.5845 75 130.648 75C180.711 75 258 86.6471 258 136.629Z" fill="url(#paint1_radial_20_108)"/>
</g>
<g opacity="0.7" filter="url(#filter2_f_20_108)">
<path d="M375 230.745C375 323.805 231.059 453 137.821 453C44.5839 453 -31 377.56 -31 284.5C-31 191.44 44.5839 116 137.821 116C231.059 116 375 137.685 375 230.745Z" fill="url(#paint2_linear_20_108)" fill-opacity="0.3"/>
</g>
<path fill-rule="evenodd" clip-rule="evenodd" d="M98.3133 83.6047L101.539 84.1199L104.861 85.0573L171.083 109.132L173.982 110.315L176.764 111.816L179.409 113.602L181.895 115.643L184.201 117.906L186.305 120.362L188.182 122.98L189.811 125.732L191.165 128.589L192.219 131.522L192.947 134.502L193.32 137.5L194.5 202.888L194.5 202.89L194.103 206.067L193.32 209.005L192.173 211.68L190.682 214.063L188.866 216.127L186.749 217.841L184.353 219.177L181.701 220.102L178.817 220.586L175.73 220.596L172.466 220.102L99.2985 204.5L95.7235 203.674L91.9629 202.062L88.368 199.728L85.1503 197.301L82.2116 194.529L79.5906 191.461L77.3245 188.144L75.4492 184.627L73.9989 180.959L73.0058 177.191L72.5 173.371L72.5098 169.549L78.3205 99.1422L78.7869 96.0773L79.6941 93.3119L81.0032 90.8615L82.6759 88.7401L84.6745 86.9608L86.9624 85.5357L89.5038 84.4765L92.2646 83.7943L95.2116 83.5L98.3133 83.6047ZM194.5 202.888L193.32 137.5L194.492 199.5L194.5 202.888Z" fill="url(#paint3_linear_20_108)" fill-opacity="0.5"/>
<path fill-rule="evenodd" clip-rule="evenodd" d="M92.91 77.5772L92.4436 80.6421L86.9298 156.588L86.9199 160.41L87.4256 164.229L88.4188 167.998L89.8691 171.665L91.7444 175.182L94.0105 178.499L96.6315 181.568L99.5702 184.339L102.788 186.766L106.245 188.804L109.902 190.408L113.717 191.538L191.966 209.261L195.23 209.756L198.317 209.746L201.2 209.262L203.852 208.337L201.212 209.902L198.824 211.233L196.301 212.729L198.823 211.233L198.824 211.233L201.212 209.902L203.852 208.337L206.249 207.001L201.214 209.9L201.213 209.901L201.212 209.902L198.824 211.233L196.301 212.729L191.51 215.488L186.835 218.18L184.473 219.499L181.87 220.425L179.053 220.928L176.047 220.979L172.88 220.546L97.3747 204.59L93.7123 203.56L90.2109 202.074L86.9089 200.169L83.844 197.887L81.0533 195.272L78.573 192.367L76.438 189.218L74.682 185.871L73.3371 182.372L72.4335 178.769L72 175.108L72.063 171.435L78.4661 98.029L78.9617 95.0481L79.8801 92.3474L84.5421 85.7078L86.1993 83.6064L89.6459 79.2603L93.1776 74.8068L96.7956 70.2444L95.1263 72.3615L93.8172 74.8119L92.91 77.5772Z" fill="url(#paint4_linear_20_108)"/>
<g filter="url(#filter3_b_20_108)">
<path fill-rule="evenodd" clip-rule="evenodd" d="M112.436 65.1047L115.663 65.6199L118.984 66.5573L187.386 90.0222L190.284 91.2046L193.066 92.7057L195.711 94.4925L198.198 96.533L200.504 98.7961L202.607 101.252L204.485 103.87L206.113 106.622L207.467 109.479L208.522 112.412L209.25 115.392L209.623 118.39L214 192.048L214 192.05L213.603 195.226L212.82 198.165L211.673 200.839L210.182 203.222L208.366 205.286L206.249 207.001L203.853 208.337L201.201 209.262L198.317 209.745L195.23 209.756L191.966 209.261L113.718 191.538L110.143 190.712L106.383 189.1L102.788 186.766L99.5702 184.339L96.6315 181.568L94.0105 178.499L91.7444 175.182L89.8691 171.665L88.4188 167.998L87.4257 164.23L86.9199 160.41L86.9298 156.588L92.4436 80.6422L92.91 77.5773L93.8172 74.8119L95.1263 72.3615L96.799 70.2401L98.7976 68.4608L101.085 67.0357L103.627 65.9765L106.388 65.2943L109.335 65L112.436 65.1047ZM214 192.048L209.623 118.39L213.992 188.659L214 192.048Z" fill="url(#paint5_linear_20_108)" fill-opacity="0.3"/>
<path d="M213.498 192.033L213.111 195.13L212.347 198.001L211.229 200.606L209.779 202.923L208.019 204.924L205.968 206.585L203.647 207.879L201.076 208.776L198.275 209.246L195.267 209.256L192.059 208.77L113.831 191.051L113.829 191.051L110.299 190.235L106.619 188.658L103.075 186.356L99.8932 183.956L96.9942 181.222L94.4081 178.195L92.1727 174.923L90.3236 171.455L88.8947 167.841L87.9173 164.133L87.42 160.377L87.4297 156.606L92.9409 80.698L93.3981 77.6936L94.2787 75.0091L95.5464 72.6362L97.1644 70.5843L99.0982 68.8626L101.315 67.4816L103.784 66.4528L106.473 65.7882L109.351 65.5008L112.388 65.6034L115.555 66.109L118.835 67.0348L187.21 90.4906L190.07 91.6574L192.807 93.134L195.412 94.8938L197.863 96.9054L200.138 99.1378L202.213 101.561L204.066 104.144L205.671 106.857L207.005 109.671L208.042 112.556L208.757 115.483L209.125 118.436L213.498 192.033Z" stroke="url(#paint6_linear_20_108)"/>
</g>
<g filter="url(#filter4_d_20_108)">
<path fill-rule="evenodd" clip-rule="evenodd" d="M119.694 125.321L122.769 122.029L119.125 125.932L119.694 125.321ZM193.861 128.017L152.49 158.669L152.486 158.671L151.758 159.122L150.971 159.444L150.137 159.64L149.268 159.712L148.375 159.663L147.47 159.494L146.566 159.209L145.673 158.809L144.805 158.299L143.516 159.961L142.227 161.622L143.109 162.014L144.005 162.292L144.901 162.455L145.786 162.5L146.648 162.424L147.475 162.227L148.257 161.904L148.981 161.455L190.222 130.88L190.224 130.878L193.861 128.017ZM122.196 122.643L119.125 125.932L118.669 126.623L118.329 127.384L118.106 128.202L118 129.067L118.013 129.966L118.147 130.887L118.401 131.818L118.778 132.748L119.276 133.663L119.898 134.551L139.064 158.988L139.775 159.801L140.547 160.513L141.369 161.121L142.227 161.622L143.516 159.961L144.805 158.299L143.974 157.68L143.192 156.957L142.47 156.132L123.015 131.351L122.383 130.45L121.876 129.524L121.492 128.583L121.231 127.641L121.092 126.71L121.075 125.802L121.178 124.93L121.4 124.105L121.74 123.339L122.196 122.643ZM122.196 122.643L122.769 122.029L119.125 125.932L122.196 122.643Z" fill="url(#paint7_linear_20_108)"/>
<path fill-rule="evenodd" clip-rule="evenodd" d="M193.523 119.451L194.073 120.238L194.53 121.045L194.893 121.861L195.163 122.677L195.338 123.483L195.418 124.27L195.403 125.028L195.291 125.746L195.082 126.414L194.774 127.023L194.368 127.56L193.861 128.017L152.489 158.669L152.486 158.671L151.758 159.122L150.971 159.444L150.137 159.64L149.268 159.712L148.375 159.663L147.47 159.494L146.566 159.209L145.673 158.809L144.805 158.299L143.974 157.68L147.8 142.333L185.125 116.658L185.725 116.325L186.376 116.107L187.068 116L187.791 116.001L188.535 116.106L189.29 116.311L190.047 116.612L190.796 117.007L191.528 117.491L192.233 118.062L192.901 118.716L193.523 119.451ZM121.178 124.93L121.4 124.105L121.74 123.339L124.229 121.105L127.739 120.746L128.66 120.95L129.574 121.264L130.471 121.684L131.339 122.207L132.166 122.83L132.94 123.549L133.651 124.361L147.8 142.333L143.974 157.68L143.192 156.957L142.47 156.132L123.015 131.351L122.383 130.45L121.876 129.524L121.492 128.583L121.231 127.641L121.092 126.71L121.075 125.802L121.178 124.93ZM127.739 120.746L126.823 120.656L125.925 120.683L125.056 120.831L124.229 121.105L127.739 120.746ZM124.229 121.105L123.455 121.509L122.769 122.029L122.196 122.643L121.74 123.339L124.229 121.105Z" fill="url(#paint8_linear_20_108)"/>
</g>
</g>
<defs>
<filter id="filter0_f_20_108" x="48" y="-2.00001" width="313.519" height="327.5" filterUnits="userSpaceOnUse" color-interpolation-filters="sRGB">
<feFlood flood-opacity="0" result="BackgroundImageFix"/>
<feBlend mode="normal" in="SourceGraphic" in2="BackgroundImageFix" result="shape"/>
<feGaussianBlur stdDeviation="30" result="effect1_foregroundBlur_20_108"/>
</filter>
<filter id="filter1_f_20_108" x="-20" y="15" width="338" height="301" filterUnits="userSpaceOnUse" color-interpolation-filters="sRGB">
<feFlood flood-opacity="0" result="BackgroundImageFix"/>
<feBlend mode="normal" in="SourceGraphic" in2="BackgroundImageFix" result="shape"/>
<feGaussianBlur stdDeviation="30" result="effect1_foregroundBlur_20_108"/>
</filter>
<filter id="filter2_f_20_108" x="-91" y="56" width="526" height="457" filterUnits="userSpaceOnUse" color-interpolation-filters="sRGB">
<feFlood flood-opacity="0" result="BackgroundImageFix"/>
<feBlend mode="normal" in="SourceGraphic" in2="BackgroundImageFix" result="shape"/>
<feGaussianBlur stdDeviation="30" result="effect1_foregroundBlur_20_108"/>
</filter>
<filter id="filter3_b_20_108" x="73.9199" y="52" width="153.08" height="170.756" filterUnits="userSpaceOnUse" color-interpolation-filters="sRGB">
<feFlood flood-opacity="0" result="BackgroundImageFix"/>
<feGaussianBlur in="BackgroundImageFix" stdDeviation="6.5"/>
<feComposite in2="SourceAlpha" operator="in" result="effect1_backgroundBlur_20_108"/>
<feBlend mode="normal" in="SourceGraphic" in2="effect1_backgroundBlur_20_108" result="shape"/>
</filter>
<filter id="filter4_d_20_108" x="101.295" y="111.36" width="103.404" height="72.4856" filterUnits="userSpaceOnUse" color-interpolation-filters="sRGB">
<feFlood flood-opacity="0" result="BackgroundImageFix"/>
<feColorMatrix in="SourceAlpha" type="matrix" values="0 0 0 0 0 0 0 0 0 0 0 0 0 0 0 0 0 0 127 0" result="hardAlpha"/>
<feOffset dx="-3.71229" dy="8.35266"/>
<feGaussianBlur stdDeviation="6.49651"/>
<feComposite in2="hardAlpha" operator="out"/>
<feColorMatrix type="matrix" values="0 0 0 0 0.103333 0 0 0 0 0.4104 0 0 0 0 0.43 0 0 0 0.25 0"/>
<feBlend mode="normal" in2="BackgroundImageFix" result="effect1_dropShadow_20_108"/>
<feBlend mode="normal" in="SourceGraphic" in2="effect1_dropShadow_20_108" result="shape"/>
</filter>
<radialGradient id="paint0_radial_20_108" cx="0" cy="0" r="1" gradientUnits="userSpaceOnUse" gradientTransform="translate(117.519 126.639) rotate(59.5576) scale(188.485 188.485)">
<stop stop-color="#7B9FE3" stop-opacity="0.09"/>
<stop offset="0.43836" stop-color="#0C8EA0" stop-opacity="0.33"/>
<stop offset="1" stop-color="#193C50" stop-opacity="0"/>
</radialGradient>
<radialGradient id="paint1_radial_20_108" cx="0" cy="0" r="1" gradientUnits="userSpaceOnUse" gradientTransform="translate(120.741 137.806) rotate(85.2087) scale(118.608 118.8)">
<stop stop-color="#46E6C9"/>
<stop offset="0.466006" stop-color="#46D3E6" stop-opacity="0.653125"/>
<stop offset="1" stop-color="#193C50" stop-opacity="0"/>
</radialGradient>
<linearGradient id="paint2_linear_20_108" x1="36" y1="92" x2="137.707" y2="453.032" gradientUnits="userSpaceOnUse">
<stop offset="0.109982" stop-color="#193C50" stop-opacity="0"/>
<stop offset="0.612888" stop-color="#1488C9" stop-opacity="0.83"/>
</linearGradient>
<linearGradient id="paint3_linear_20_108" x1="76.0386" y1="229.204" x2="187.596" y2="93.6308" gradientUnits="userSpaceOnUse">
<stop offset="0.320833" stop-color="#C0EEF1"/>
<stop offset="0.58125" stop-color="#8FC3D0"/>
<stop offset="0.89375" stop-color="#2A9FAF" stop-opacity="0.79"/>
</linearGradient>
<linearGradient id="paint4_linear_20_108" x1="39.03" y1="90.6725" x2="195.042" y2="246.478" gradientUnits="userSpaceOnUse">
<stop stop-color="#CBF3FF"/>
<stop offset="0.35896" stop-color="#39B8C9"/>
<stop offset="0.683604" stop-color="#089EB3"/>
<stop offset="1" stop-color="#68A4B7"/>
</linearGradient>
<linearGradient id="paint5_linear_20_108" x1="90.9585" y1="215.204" x2="202.516" y2="79.6309" gradientUnits="userSpaceOnUse">
<stop offset="0.320833" stop-color="#A2F4FF"/>
<stop offset="0.685417" stop-color="#68D3E9" stop-opacity="0.9405"/>
<stop offset="0.89375" stop-color="#009BB0" stop-opacity="0.79"/>
</linearGradient>
<linearGradient id="paint6_linear_20_108" x1="86.6911" y1="195.807" x2="210.141" y2="92.2418" gradientUnits="userSpaceOnUse">
<stop offset="0.180663" stop-color="white" stop-opacity="0.35"/>
<stop offset="0.533255" stop-color="white" stop-opacity="0"/>
</linearGradient>
<linearGradient id="paint7_linear_20_108" x1="114.462" y1="92.2433" x2="115.351" y2="171.724" gradientUnits="userSpaceOnUse">
<stop offset="0.301696" stop-color="#C5E7EE"/>
<stop offset="0.993284" stop-color="#7FB8C0" stop-opacity="0.63"/>
</linearGradient>
<linearGradient id="paint8_linear_20_108" x1="152.263" y1="173.126" x2="192.303" y2="101.847" gradientUnits="userSpaceOnUse">
<stop stop-color="white"/>
<stop offset="0.644664" stop-color="white" stop-opacity="0.57"/>
</linearGradient>
<clipPath id="clip0_20_108">
<rect width="285" height="285" rx="50" fill="white"/>
</clipPath>
</defs>
</svg>
